<?xml version="1.0" encoding="UTF-8"?>
<svg version="1.1" xmlns="http://www.w3.org/2000/svg" width="1024" height="1024">
<path d="M0 0 C337.92 0 675.84 0 1024 0 C1024 337.92 1024 675.84 1024 1024 C686.08 1024 348.16 1024 0 1024 C0 686.08 0 348.16 0 0 Z " fill="#001324" transform="translate(0,0)"/>
<path d="M0 0 C14.14529699 12.22619419 24.07292627 28.19963127 25.55078125 47.15722656 C26.73260488 68.25277828 21.60125529 88.3842381 7.55078125 104.671875 C-0.67991377 113.10944566 -11.29199347 121.12467491 -22.625 124.90234375 C-22.85749723 133.61255472 -23.03477318 142.32168595 -23.14312172 151.03433132 C-23.19514661 155.08089306 -23.26560319 159.12532084 -23.37939453 163.1706543 C-23.48868138 167.08067054 -23.54796658 170.98864567 -23.57377243 174.9000721 C-23.59214105 176.38619172 -23.62801591 177.87220905 -23.68230057 179.35745049 C-24.05804078 188.0824365 -24.05804078 188.0824365 -20.43383789 195.7936554 C-17.93368425 198.06369674 -15.41667406 200.00895173 -12.625 201.90234375 C-11.67109375 202.70285156 -10.7171875 203.50335938 -9.734375 204.328125 C-8.95578125 204.95074219 -8.1771875 205.57335937 -7.375 206.21484375 C-1.29087608 211.14375427 4.64096748 216.23907465 10.57226562 221.34960938 C13.52395881 223.891967 16.48028507 226.42891263 19.4375 228.96484375 C20.01661133 229.46145508 20.59572266 229.95806641 21.19238281 230.46972656 C27.22953545 235.6420157 33.30034941 240.77419988 39.375 245.90234375 C41.521334 247.714252 43.66722399 249.52668296 45.8125 251.33984375 C46.33972656 251.78529541 46.86695313 252.23074707 47.41015625 252.68969727 C50.33812528 255.1670391 53.25603327 257.65552227 56.1640625 260.15625 C56.7938501 260.69773682 57.4236377 261.23922363 58.07250977 261.79711914 C59.28495815 262.84069135 60.49643863 263.88538951 61.70678711 264.93139648 C63.25491002 266.2643328 64.8144822 267.58394019 66.375 268.90234375 C67.07496094 269.52625 67.77492188 270.15015625 68.49609375 270.79296875 C70.33059507 272.10848964 70.33059507 272.10848964 72.59375 271.79296875 C73.3465625 271.5815625 74.099375 271.37015625 74.875 271.15234375 C75.6278125 270.95125 76.380625 270.75015625 77.15625 270.54296875 C78.49663199 270.15595705 79.8366652 269.76773051 81.17602539 269.37719727 C93.68980315 266.67493261 109.73017599 267.50062626 121.375 272.90234375 C122.30828125 273.32644531 123.2415625 273.75054687 124.203125 274.1875 C141.41951918 282.81974233 153.39331496 297.42286666 159.62890625 315.546875 C160.5950042 318.65387294 161.51465509 321.76461524 162.375 324.90234375 C163.035 324.90234375 163.695 324.90234375 164.375 324.90234375 C165.77299192 323.39161291 165.77299192 323.39161291 167.17578125 321.37890625 C168.01302734 320.23240601 168.01302734 320.23240601 168.8671875 319.06274414 C169.46789062 318.22606201 170.06859375 317.38937988 170.6875 316.52734375 C171.62529297 315.23654907 171.62529297 315.23654907 172.58203125 313.91967773 C173.88392482 312.12580094 175.18287377 310.32978375 176.47900391 308.53173828 C178.21223685 306.12806602 179.95376395 303.73074148 181.69921875 301.3359375 C195.66546424 282.1401066 209.09609412 262.57808582 222.375 242.90234375 C222.99938965 241.97744141 223.6237793 241.05253906 224.26708984 240.09960938 C236.41141708 222.07835966 248.07356968 203.77485873 259.375 185.21484375 C259.73244293 184.62919647 260.08988586 184.04354919 260.4581604 183.44015503 C262.79259617 179.61095766 265.09290389 175.76292946 267.375 171.90234375 C267.99117187 170.87931152 268.60734375 169.8562793 269.2421875 168.80224609 C270.08136719 167.35712646 270.08136719 167.35712646 270.9375 165.8828125 C271.43378906 165.04000732 271.93007813 164.19720215 272.44140625 163.32885742 C273.59648399 160.3266823 273.55219523 158.88827806 272.375 155.90234375 C270.52476972 154.46192991 270.52476972 154.46192991 268.08984375 153.578125 C267.17831543 153.19430664 266.26678711 152.81048828 265.32763672 152.41503906 C263.83514404 151.82094238 263.83514404 151.82094238 262.3125 151.21484375 C261.28914551 150.78913086 260.26579102 150.36341797 259.21142578 149.92480469 C255.93935578 148.56696288 252.65743166 147.23491158 249.375 145.90234375 C245.16335898 144.16027612 240.95677983 142.406113 236.75 140.65234375 C235.74340332 140.23355957 234.73680664 139.81477539 233.69970703 139.38330078 C222.78423948 134.83654627 222.78423948 134.83654627 217.6875 132.58984375 C216.28951172 131.97689453 216.28951172 131.97689453 214.86328125 131.3515625 C211.29857071 129.27541241 207.98795188 126.91252134 206.74609375 122.83984375 C206.77896484 121.88078125 206.77896484 121.88078125 206.8125 120.90234375 C206.81121094 120.26296875 206.80992187 119.62359375 206.80859375 118.96484375 C208.77389317 111.80844312 216.23314133 108.58836748 222.125 105.02734375 C224.3126851 103.68389512 226.50018 102.34013673 228.6875 100.99609375 C229.80382812 100.31417969 230.92015625 99.63226563 232.0703125 98.9296875 C236.13711115 96.43480747 240.17666648 93.89826693 244.21484375 91.35742188 C256.73689448 83.48281682 269.36923076 75.79465752 282.02693176 68.1411438 C286.14226823 65.65176192 290.25055557 63.15105712 294.35546875 60.64453125 C307.9607103 52.34198987 321.64019227 44.18172594 335.40585327 36.14796448 C336.00410919 35.79878464 336.60236511 35.4496048 337.21875 35.08984375 C338.11359604 34.56758461 338.11359604 34.56758461 339.02651978 34.03477478 C345.35157714 30.33902874 351.64298222 26.58733529 357.9375 22.83984375 C370.74254038 15.22616397 383.65661942 7.81016063 396.62158203 0.47265625 C398.28678579 -0.47703258 399.94598786 -1.43750903 401.59326172 -2.41796875 C405.79073219 -4.91453964 408.44022314 -5.8287343 413.375 -5.09765625 C416.12829021 -3.3020322 417.90127461 -2.04510703 419.375 0.90234375 C419.88651373 9.41680078 419.04321995 17.88197708 418.140625 26.33984375 C418.00722717 27.62914795 417.87382935 28.91845215 417.73638916 30.24682617 C416.18160608 45.1644691 414.44219073 60.06225127 412.70199585 74.95916748 C412.10867336 80.03835403 411.51935577 85.11800052 410.9309082 90.19775391 C410.83134103 91.05724199 410.73177385 91.91673008 410.62918949 92.80226326 C410.42771344 94.54163911 410.22625579 96.28101708 410.02481651 98.02039719 C409.72325039 100.62377711 409.42144298 103.22712897 409.11958313 105.83047485 C407.24778836 121.97722804 405.3927974 138.12583226 403.5625 154.27734375 C403.41886017 155.54366638 403.27522034 156.80998901 403.12722778 158.11468506 C401.14162903 175.65770576 399.25994065 193.20801972 397.6159668 210.78662109 C395.28589175 235.4518481 395.28589175 235.4518481 390.375 239.90234375 C387.096497 241.54159525 383.90585124 241.55537652 380.375 240.90234375 C374.45982045 237.51040381 369.61734207 232.40590899 364.8828125 227.5703125 C364.21079803 226.89309647 363.53878357 226.21588043 362.84640503 225.5181427 C360.72604982 223.38014745 358.61259332 221.23550668 356.5 219.08984375 C354.36506499 216.92727282 352.22866168 214.76620326 350.08932495 212.60798645 C348.76438292 211.27079813 347.44212329 209.93094552 346.12283325 208.58818054 C345.52816254 207.98697891 344.93349182 207.38577728 344.32080078 206.76635742 C343.79865997 206.23596359 343.27651917 205.70556976 342.73855591 205.15910339 C340.48151722 203.07884022 339.18872752 202.8812563 336.0625 202.52734375 C331.32231162 203.00939681 330.4487673 204.34324477 327.375 207.90234375 C325.92791917 210.26322418 324.59798909 212.58389864 323.3125 215.02734375 C320.04315039 221.0622209 316.56948546 226.92764549 312.88671875 232.71875 C312.36985504 233.53397629 311.85299133 234.34920258 311.32046509 235.18913269 C305.96051859 243.6088373 300.45675437 251.93134529 294.91064453 260.22924805 C293.24033654 262.72930768 291.57504671 265.23265835 289.91015625 267.73632812 C283.56874186 277.25277544 277.0994858 286.65260692 270.375 295.90234375 C269.77123535 296.73499756 269.1674707 297.56765137 268.54541016 298.42553711 C266.95427096 300.61081796 265.35484791 302.7896145 263.75 304.96484375 C262.88121216 306.14276489 262.88121216 306.14276489 261.99487305 307.34448242 C251.77623684 321.15561854 241.33084792 334.79660387 230.66503906 348.26513672 C229.32804996 349.96192872 228.00268345 351.66727949 226.6796875 353.375 C221.50003058 360.04683421 216.17471928 366.54864826 210.64477539 372.93359375 C207.81592045 376.20392499 205.05454822 379.50713979 202.375 382.90234375 C197.74388572 388.75569025 192.86801642 394.39145156 187.98681641 400.03613281 C186.36612522 401.91261924 184.75102478 403.79380064 183.13671875 405.67578125 C177.40576269 412.34172026 171.60361369 418.92169248 165.59570312 425.34008789 C163.00997545 428.10609722 160.48323465 430.9108427 158 433.76953125 C154.34377792 437.96665883 150.56911242 442.04095364 146.75 446.08984375 C146.05849854 446.82452881 145.36699707 447.55921387 144.65454102 448.31616211 C139.79738777 453.45427544 134.86131142 458.50254678 129.80029297 463.44018555 C127.08291841 466.10986296 124.51947802 468.85264514 122.03125 471.73828125 C118.1897421 476.17638497 114.09785122 480.32696067 109.9375 484.46484375 C109.22529297 485.18091797 108.51308594 485.89699219 107.77929688 486.63476562 C103.68553447 490.72109158 99.48607944 494.6141907 95.10522461 498.39038086 C93.10033353 500.14236202 91.22405277 501.98725338 89.375 503.90234375 C86.2251997 507.09495687 82.96280511 510.07395654 79.5625 512.99609375 C77.01988601 515.21180023 74.54389802 517.49332967 72.0625 519.77734375 C67.62249216 523.82755667 63.05565719 527.65768497 58.37890625 531.4296875 C54.87833345 534.3111733 51.47225953 537.2896079 48.0625 540.27734375 C42.73061906 544.93507107 37.2986548 549.41099461 31.70239258 553.74658203 C27.9934224 556.62140838 24.34102384 559.55338401 20.71728516 562.53491211 C11.651656 569.98834883 2.32291855 577.05455458 -7.10791016 584.03808594 C-9.54788618 585.84523016 -11.98321426 587.65848617 -14.41796875 589.47265625 C-29.86399594 600.95127793 -45.5761019 612.05847392 -61.66845703 622.61425781 C-63.74233523 623.97959115 -65.80657264 625.35884578 -67.87109375 626.73828125 C-203.18821012 716.53662746 -203.18821012 716.53662746 -236.625 709.90234375 C-240.44968048 707.91917609 -243.71567421 705.82706898 -245.625 701.90234375 C-246.46438205 697.02460138 -246.43878242 694.08814099 -243.57421875 689.9140625 C-240.4982755 686.48307744 -236.90903335 684.35667416 -232.9375 682.08984375 C-225.03036952 677.4163187 -217.30089355 672.50846211 -209.625 667.46484375 C-209.06491241 667.09718903 -208.50482483 666.7295343 -207.92776489 666.35073853 C-204.15621835 663.87392327 -200.38967808 661.3895898 -196.625 658.90234375 C-195.77873047 658.34369629 -194.93246094 657.78504883 -194.06054688 657.20947266 C-175.70820003 645.0785868 -157.5273279 632.68851674 -139.625 619.90234375 C-138.91988281 619.40057617 -138.21476562 618.89880859 -137.48828125 618.38183594 C-125.77539036 610.03876689 -114.31660593 601.38759825 -102.90283203 592.64111328 C-100.01352066 590.43557463 -97.10331887 588.26020693 -94.1875 586.08984375 C-88.1743955 581.59494152 -82.28323472 576.95149954 -76.39404297 572.29638672 C-74.67482719 570.94160862 -72.9499551 569.59445166 -71.22265625 568.25 C-58.72576819 558.51204859 -46.50272575 548.4468954 -34.51391602 538.09008789 C-31.07993598 535.12845997 -27.59755791 532.24365293 -24.0625 529.40234375 C-18.6970194 525.04981524 -13.66111045 520.38698809 -8.61328125 515.67578125 C-6.3214159 513.53880061 -3.99741243 511.45011027 -1.625 509.40234375 C3.57867605 504.89393966 8.60273778 500.18972849 13.64501953 495.50292969 C15.26446884 494.00460769 16.89402508 492.51832565 18.52734375 491.03515625 C27.73059327 482.62455734 36.55262158 473.83316447 45.375 465.02734375 C46.01332764 464.39160431 46.65165527 463.75586487 47.30932617 463.1008606 C56.44160873 454.01109835 56.44160873 454.01109835 65.05859375 444.43701172 C66.73226078 442.48584871 68.52635408 440.68724326 70.375 438.90234375 C73.58332276 435.73712705 76.58126499 432.45861923 79.51953125 429.04296875 C81.64601158 426.58968196 83.82059075 424.18369975 86 421.77734375 C87.45939595 420.153298 88.91782753 418.5283848 90.375 416.90234375 C90.93058594 416.28746094 91.48617188 415.67257812 92.05859375 415.0390625 C94.85489367 411.95416504 94.85489367 411.95416504 95.375 407.90234375 C93.85132813 407.66451172 93.85132813 407.66451172 92.296875 407.421875 C72.02050893 404.06722 53.79224944 395.26359065 41.125 378.58984375 C32.19695558 365.65770668 27.82579398 353.17242001 28 337.46484375 C27.98839844 336.42263672 27.97679687 335.38042969 27.96484375 334.30664062 C27.99982834 324.90161687 29.37172886 315.60214741 34.125 307.33984375 C35.48852533 305.05546947 35.48852533 305.05546947 36.375 302.90234375 C35.12007047 299.13755516 33.54402481 298.20853708 30.4375 295.77734375 C26.6430907 292.75160833 22.95563538 289.67836649 19.375 286.40234375 C16.05510514 283.37951954 12.67735888 280.47722214 9.1875 277.65234375 C4.71285819 274.02971413 0.34105104 270.30759972 -4 266.52734375 C-10.28915123 261.05125984 -16.62842257 255.63994274 -23.00585938 250.26708984 C-25.8401487 247.87811558 -28.67009221 245.4840052 -31.5 243.08984375 C-32.04245361 242.63101807 -32.58490723 242.17219238 -33.14379883 241.69946289 C-36.98432271 238.44924066 -40.81126128 235.18393288 -44.625 231.90234375 C-47.37687312 233.17838534 -49.57016965 234.54707312 -51.83984375 236.5546875 C-52.43676025 237.07820801 -53.03367676 237.60172852 -53.64868164 238.14111328 C-54.2802417 238.70169434 -54.91180176 239.26227539 -55.5625 239.83984375 C-56.91358013 241.02398809 -58.26515092 242.20757282 -59.6171875 243.390625 C-60.29233398 243.98311035 -60.96748047 244.5755957 -61.66308594 245.18603516 C-69.34495621 251.90623775 -77.18328937 258.37787778 -85.24755859 264.6328125 C-90.38973966 268.65205394 -95.31082258 272.90039607 -100.22119141 277.19775391 C-105.5892242 281.89250326 -111.08051004 286.41746743 -116.625 290.90234375 C-119.48945877 293.25247637 -122.35228268 295.60458784 -125.21484375 297.95703125 C-127.31898646 299.65535065 -129.4494087 301.2971511 -131.625 302.90234375 C-130.78965125 307.85748064 -129.11896533 312.48288121 -127.44140625 317.19921875 C-121.70163543 333.84115781 -124.09564947 351.45291578 -131.31005859 367.16040039 C-139.8040695 384.56836478 -153.1510108 397.16996428 -171.60498047 403.59130859 C-188.30313704 408.85270401 -205.12307748 408.16969769 -220.9765625 400.3359375 C-239.85913097 390.11484218 -252.15026076 375.14363988 -258.4375 354.52734375 C-262.76318118 335.5685011 -259.43161305 316.48300277 -249.625 299.90234375 C-239.45066157 284.83081337 -224.18230503 273.3737949 -206.31860352 269.38769531 C-192.861453 266.9628956 -178.05002873 267.91918002 -165.671875 273.8359375 C-162.14398689 273.95039189 -160.02536009 271.28302011 -157.5625 269.02734375 C-156.39528937 267.99783775 -155.22730923 266.9692036 -154.05859375 265.94140625 C-153.18823486 265.16651855 -153.18823486 265.16651855 -152.30029297 264.37597656 C-149.96128413 262.3185214 -147.54824464 260.35944295 -145.125 258.40234375 C-141.0616952 255.09610301 -137.05200691 251.73417946 -133.0625 248.33984375 C-128.51215684 244.46992573 -123.89667165 240.70274478 -119.21484375 236.9921875 C-115.59369031 234.0701406 -112.05545431 231.05412889 -108.51171875 228.0390625 C-105.07928391 225.12229862 -101.61907185 222.24540949 -98.125 219.40234375 C-94.08515292 216.11409613 -90.09451917 212.77462701 -86.125 209.40234375 C-81.92930693 205.84542405 -77.73019607 202.29320592 -73.5 198.77734375 C-72.63117188 198.05289063 -71.76234375 197.3284375 -70.8671875 196.58203125 C-68.625 194.90234375 -68.625 194.90234375 -65.625 193.90234375 C-65.625 171.13234375 -65.625 148.36234375 -65.625 124.90234375 C-68.595 123.91234375 -71.565 122.92234375 -74.625 121.90234375 C-92.73118839 113.45737882 -105.42675948 98.34783509 -112.625 79.90234375 C-114.84909986 73.33429886 -116.22291732 66.82303949 -116.625 59.90234375 C-116.70427734 58.8040625 -116.70427734 58.8040625 -116.78515625 57.68359375 C-117.46034594 40.06994957 -111.19877731 22.30786047 -99.61328125 9.03515625 C-98.62908203 7.97941406 -98.62908203 7.97941406 -97.625 6.90234375 C-96.99980469 6.19851562 -96.37460937 5.4946875 -95.73046875 4.76953125 C-70.47200073 -22.28943856 -28.04158509 -22.40823094 0 0 Z " fill="#23B9A6" transform="translate(452.625,172.09765625)"/>
<path d="M0 0 C0.99 0.495 0.99 0.495 2 1 C-4.50093492 7.17191727 -11.0040843 12.93697048 -18.3515625 18.10546875 C-20.98064791 19.98615669 -23.49132108 21.96219299 -26 24 C-30.25373466 27.44318049 -34.63068217 30.66656512 -39.07421875 33.859375 C-42.30522324 36.2233142 -45.4660337 38.66629037 -48.625 41.125 C-53.02111379 44.54434355 -57.48577021 47.76930759 -62.1953125 50.74609375 C-64.0403898 51.94846811 -64.0403898 51.94846811 -65.54296875 53.546875 C-67.45314325 55.45192838 -69.70183845 56.54416179 -72.046875 57.83984375 C-75.57447972 59.93524095 -78.75808283 62.49374865 -82 65 C-87.52839959 69.23405207 -93.18093978 73.17676796 -99 77 C-101.58607446 78.7042167 -104.16852694 80.41382353 -106.75 82.125 C-107.3881665 82.54491211 -108.02633301 82.96482422 -108.68383789 83.39746094 C-112.2720683 85.77676193 -115.64599814 88.29459432 -119 91 C-120.62645289 91.94334268 -122.25448402 92.88437219 -123.8984375 93.796875 C-126.55875178 95.3198802 -129.15402109 96.93230744 -131.75 98.5625 C-132.67296875 99.14128906 -133.5959375 99.72007812 -134.546875 100.31640625 C-136.97058413 101.8677143 -136.97058413 101.8677143 -138.640625 103.65234375 C-140 105 -140 105 -143 106 C-143.66 106.66 -144.32 107.32 -145 108 C-146.17131303 108.67474641 -147.36250387 109.31519281 -148.5625 109.9375 C-153.38205187 112.57062102 -158.00508789 115.47294401 -162.625 118.4375 C-163.69923218 119.11897095 -163.69923218 119.11897095 -164.79516602 119.81420898 C-173.95029992 125.28202247 -173.95029992 125.28202247 -179.4375 133.875 C-179.623125 134.90625 -179.80875 135.9375 -180 137 C-179.34 137 -178.68 137 -178 137 C-177.731875 137.598125 -177.46375 138.19625 -177.1875 138.8125 C-175.94954729 141.09293921 -175.03377106 142.39653685 -173 144 C-160.07946469 145.91339138 -147.25905234 139.66740993 -136 134 C-134.38333768 133.33357023 -132.75852618 132.68645344 -131.125 132.0625 C-127.92379438 130.80985432 -124.85902603 129.46629224 -121.8125 127.875 C-119.25452771 126.54402255 -116.85327804 125.60105607 -114.0625 124.875 C-113.051875 124.58625 -112.04125 124.2975 -111 124 C-110.67 123.34 -110.34 122.68 -110 122 C-107.66666667 121.33333333 -105.33333333 120.66666667 -103 120 C-102.67 119.34 -102.34 118.68 -102 118 C-100.47038347 117.12716797 -98.9003062 116.32436217 -97.3125 115.5625 C-96.41144531 115.12679687 -95.51039063 114.69109375 -94.58203125 114.2421875 C-93.72996094 113.83226562 -92.87789063 113.42234375 -92 113 C-90.845 112.401875 -89.69 111.80375 -88.5 111.1875 C-86 110 -86 110 -84 110 C-83.67 109.34 -83.34 108.68 -83 108 C-81.38901347 107.06238879 -79.73588285 106.19608599 -78.0625 105.375 C-77.16660156 104.92898438 -76.27070313 104.48296875 -75.34765625 104.0234375 C-73 103 -73 103 -71 103 C-70.67 102.34 -70.34 101.68 -70 101 C-68.3203125 99.95703125 -68.3203125 99.95703125 -66.125 98.8125 C-62.40955083 96.81552014 -58.85405419 94.66659389 -55.3125 92.375 C-51.62632889 90.00311831 -47.9805731 87.85142935 -44 86 C-42.9275 85.4225 -41.855 84.845 -40.75 84.25 C-39.8425 83.8375 -38.935 83.425 -38 83 C-37.34 83.33 -36.68 83.66 -36 84 C-147.54490638 151.85220112 -147.54490638 151.85220112 -172 147 C-175.82468048 145.01683234 -179.09067421 142.92472523 -181 139 C-181.83938205 134.12225763 -181.81378242 131.18579724 -178.94921875 127.01171875 C-175.8732755 123.58073369 -172.28403335 121.45433041 -168.3125 119.1875 C-160.40536952 114.51397495 -152.67589355 109.60611836 -145 104.5625 C-144.43991241 104.19484528 -143.87982483 103.82719055 -143.30276489 103.44839478 C-139.53121835 100.97157952 -135.76467808 98.48724605 -132 96 C-131.15373047 95.44135254 -130.30746094 94.88270508 -129.43554688 94.30712891 C-111.08320003 82.17624305 -92.9023279 69.78617299 -75 57 C-74.29488281 56.49823242 -73.58976562 55.99646484 -72.86328125 55.47949219 C-61.15039036 47.13642314 -49.69160593 38.4852545 -38.27783203 29.73876953 C-35.38852066 27.53323088 -32.47831887 25.35786318 -29.5625 23.1875 C-19.53144116 15.68924774 -9.75874169 7.84746739 0 0 Z " fill="#006389" transform="translate(388,735)"/>
<path d="M0 0 C0.495 1.485 0.495 1.485 1 3 C-2.33333333 6.33333333 -5.66666667 9.66666667 -9 13 C-9.52078125 13.54398438 -10.0415625 14.08796875 -10.578125 14.6484375 C-12.01578132 16.13494622 -13.50486576 17.57131617 -15 19 C-15.66 19 -16.32 19 -17 19 C-17.20625 19.54398438 -17.4125 20.08796875 -17.625 20.6484375 C-19.52921667 23.90508078 -22.20637548 26.15051008 -25 28.625 C-29.21138307 32.42568718 -33.33031824 36.26838695 -37.3125 40.3125 C-40.65482141 43.69225541 -44.07166043 46.87828255 -47.68359375 49.96484375 C-50.16846918 52.14801424 -52.57844666 54.39886916 -54.98925781 56.66308594 C-60.55580142 61.88973347 -66.19447939 66.91322245 -72.15625 71.69140625 C-75.49230442 74.39965922 -78.74715077 77.19287903 -82 80 C-88.56125767 85.65434446 -95.23361371 91.15674781 -101.9765625 96.59375 C-104.92300761 98.92742434 -104.92300761 98.92742434 -107 102 C-109.65756064 103.74839516 -111.97382445 104.99127482 -115 106 C-113.45549368 101.64083414 -110.06662644 99.47068598 -106.5 96.8125 C-101.25768968 92.80694369 -96.28470538 88.64894341 -91.42578125 84.1796875 C-88.84872426 81.86407108 -86.19417609 79.67794934 -83.5 77.5 C-78.97902471 73.83985922 -74.63310608 70.0321816 -70.33203125 66.1171875 C-68.24176111 64.21948831 -66.13013885 62.35266585 -64 60.5 C-55.74999997 53.30599997 -47.67228925 45.9169613 -39.62597656 38.49658203 C-38.54393655 37.50065031 -37.45995501 36.50682377 -36.37402344 35.51513672 C-23.85241411 24.07804728 -11.93789265 12.03902168 0 0 Z " fill="#0C9FA5" transform="translate(506,629)"/>
<path d="M0 0 C0.99 0.495 0.99 0.495 2 1 C-4.50093492 7.17191727 -11.0040843 12.93697048 -18.3515625 18.10546875 C-20.98064791 19.98615669 -23.49132108 21.96219299 -26 24 C-30.25373466 27.44318049 -34.63068217 30.66656512 -39.07421875 33.859375 C-42.30522324 36.2233142 -45.4660337 38.66629037 -48.625 41.125 C-53.02111379 44.54434355 -57.48577021 47.76930759 -62.1953125 50.74609375 C-64.0403898 51.94846811 -64.0403898 51.94846811 -65.54296875 53.546875 C-67.45314325 55.45192838 -69.70183845 56.54416179 -72.046875 57.83984375 C-75.57447972 59.93524095 -78.75808283 62.49374865 -82 65 C-87.52839959 69.23405207 -93.18093978 73.17676796 -99 77 C-101.58607446 78.7042167 -104.16852694 80.41382353 -106.75 82.125 C-107.3881665 82.54491211 -108.02633301 82.96482422 -108.68383789 83.39746094 C-112.27228681 85.77690682 -115.64357964 88.29750292 -119 91 C-120.14614301 91.72119592 -121.31086168 92.41464398 -122.5 93.0625 C-124.66917022 94.25341698 -126.72668983 95.46831123 -128.8125 96.8125 C-129.8953125 97.4003125 -129.8953125 97.4003125 -131 98 C-131.66 97.67 -132.32 97.34 -133 97 C-130.29191131 95.14547584 -127.5834859 93.29144398 -124.875 91.4375 C-123.60293701 90.56653687 -123.60293701 90.56653687 -122.30517578 89.67797852 C-117.6874487 86.51775046 -113.06608231 83.36306119 -108.4375 80.21875 C-97.21083063 72.59001814 -86.04550604 64.88890426 -75 57 C-74.29488281 56.49823242 -73.58976562 55.99646484 -72.86328125 55.47949219 C-61.15039036 47.13642314 -49.69160593 38.4852545 -38.27783203 29.73876953 C-35.38852066 27.53323088 -32.47831887 25.35786318 -29.5625 23.1875 C-19.53144116 15.68924774 -9.75874169 7.84746739 0 0 Z " fill="#037C98" transform="translate(388,735)"/>
<path d="M0 0 C1.670625 0.061875 1.670625 0.061875 3.375 0.125 C2.818125 0.393125 2.26125 0.66125 1.6875 0.9375 C0.924375 1.329375 0.16125 1.72125 -0.625 2.125 C-1.42558838 2.53258545 -2.22617676 2.9401709 -3.05102539 3.36010742 C-6.09614261 5.44804751 -7.30062012 7.35140918 -9.12109375 10.55078125 C-9.7545874 11.64600098 -10.38808105 12.7412207 -11.04077148 13.86962891 C-11.36987518 14.45077454 -11.69897888 15.03192017 -12.03805542 15.63067627 C-13.79028728 18.72110612 -15.58577925 21.78635815 -17.375 24.85546875 C-17.7353685 25.47599121 -18.095737 26.09651367 -18.46702576 26.73583984 C-26.67616805 40.84133382 -35.7428113 54.4183103 -44.875 67.9375 C-45.24970428 68.49463684 -45.62440857 69.05177368 -46.01046753 69.62579346 C-47.06968365 71.19792177 -48.13623752 72.76509879 -49.203125 74.33203125 C-49.81575195 75.2341333 -50.42837891 76.13623535 -51.05957031 77.06567383 C-52.625 79.125 -52.625 79.125 -54.625 80.125 C-53.40669404 74.47649054 -51.89212693 72.17877058 -47.625 68.125 C-46.91337557 66.47702764 -46.23468047 64.81334592 -45.625 63.125 C-44.635 62.63 -44.635 62.63 -43.625 62.125 C-43.295 61.135 -42.965 60.145 -42.625 59.125 C-41.965 59.125 -41.305 59.125 -40.625 59.125 C-40.3775 58.073125 -40.13 57.02125 -39.875 55.9375 C-38.85818938 52.29761272 -37.08833254 49.99888796 -34.625 47.125 C-34.625 46.465 -34.625 45.805 -34.625 45.125 C-33.14 44.63 -33.14 44.63 -31.625 44.125 C-31.27087656 42.79703709 -30.93978446 41.46283393 -30.625 40.125 C-29.6456121 39.10480427 -28.64604551 38.10350195 -27.625 37.125 C-27.295 36.135 -26.965 35.145 -26.625 34.125 C-25.965 34.125 -25.305 34.125 -24.625 34.125 C-23.965 31.485 -23.305 28.845 -22.625 26.125 C-21.635 26.125 -20.645 26.125 -19.625 26.125 C-19.295 24.475 -18.965 22.825 -18.625 21.125 C-17.965 21.125 -17.305 21.125 -16.625 21.125 C-16.44324219 20.54492188 -16.26148438 19.96484375 -16.07421875 19.3671875 C-14.5831894 14.73352707 -12.94166424 10.42737645 -10.625 6.125 C-9.635 6.125 -8.645 6.125 -7.625 6.125 C-7.191875 5.196875 -7.191875 5.196875 -6.75 4.25 C-4.83385794 0.63062055 -4.21752185 0.14543179 0 0 Z " fill="#35DBBA" transform="translate(787.625,371.875)"/>
<path d="M0 0 C0.495 1.485 0.495 1.485 1 3 C-0.65 3.33 -2.3 3.66 -4 4 C-4 4.66 -4 5.32 -4 6 C-10.625 10 -10.625 10 -14 10 C-14 10.66 -14 11.32 -14 12 C-15.63324311 13.05370523 -17.31243867 14.03567924 -19 15 C-20.48057288 16.03966698 -21.95962554 17.08150081 -23.4375 18.125 C-26.95147491 20.49898974 -29.6736637 21.7781366 -34 22 C-34.495 23.485 -34.495 23.485 -35 25 C-36.77734375 26.0625 -36.77734375 26.0625 -38.9375 27 C-42.20616298 28.42373705 -42.91624972 28.87437458 -45 32 C-46.69557048 32.74996387 -48.39428198 33.49485058 -50.1171875 34.1796875 C-53.63850856 35.71387302 -57.24877293 37.49754586 -59 41 C-61.64860427 41.59355614 -64.29197322 41.74209269 -67 42 C-63.39687978 37.87664317 -59.04987024 35.46954016 -54.375 32.75 C-52.57330794 31.68643725 -50.77257551 30.6212477 -48.97265625 29.5546875 C-48.0098877 28.98459961 -47.04711914 28.41451172 -46.05517578 27.82714844 C-40.6052946 24.567846 -35.21246479 21.21611007 -29.8125 17.875 C-19.95041893 11.78354441 -10.02971159 5.81108638 0 0 Z " fill="#3EDFBA" transform="translate(765,222)"/>
<path d="M0 0 C2.83240174 1.28751397 4.87238009 2.62829943 7.05273438 4.84155273 C7.62012329 5.4123204 8.18751221 5.98308807 8.77209473 6.57115173 C9.67381409 7.49306053 9.67381409 7.49306053 10.59375 8.43359375 C11.53655823 9.38420433 11.53655823 9.38420433 12.49841309 10.35401917 C14.50375706 12.37714907 16.50228716 14.40683668 18.5 16.4375 C20.49855497 18.46372578 22.49856635 20.48845746 24.50158691 22.51026917 C25.74649674 23.76737636 26.98872368 25.02714762 28.22790527 26.28990173 C31.01597119 29.11005961 33.73439728 31.72521502 37 34 C37.763125 34.61875 38.52625 35.2375 39.3125 35.875 C42.11666645 37.39522438 42.11666645 37.39522438 45.5625 35.8125 C46.696875 35.214375 47.83125 34.61625 49 34 C50.33192091 33.33051594 51.66491843 32.66315868 53 32 C52.97679687 30.92621094 52.95359375 29.85242188 52.9296875 28.74609375 C52.91091376 27.30990285 52.8927153 25.87370435 52.875 24.4375 C52.85824219 23.73302734 52.84148438 23.02855469 52.82421875 22.30273438 C52.77977956 17.48108178 53.47231996 13.57702562 55 9 C55.33 9 55.66 9 56 9 C56.63207846 28.80512496 56.63207846 28.80512496 52 36.1875 C48.87639007 39.0182715 46.43285974 39.46745301 42.19763184 39.4058075 C35.15237559 38.10485356 29.05854465 30.34181129 24.21875 25.44921875 C23.51979614 24.74980667 22.82084229 24.05039459 22.10070801 23.32978821 C20.63962484 21.86570699 19.18094917 20.39921951 17.72460938 18.93041992 C15.48368142 16.67104711 13.23466465 14.41996714 10.984375 12.16992188 C9.56202392 10.74266179 8.14013183 9.3149441 6.71875 7.88671875 C6.0438855 7.21074142 5.369021 6.5347641 4.67370605 5.83830261 C4.05886353 5.21708023 3.444021 4.59585785 2.81054688 3.95581055 C2.26619995 3.40765182 1.72185303 2.8594931 1.16101074 2.29472351 C0 1 0 1 0 0 Z " fill="#3BE8C5" transform="translate(793,374)"/>
<path d="M0 0 C0.99 0.495 0.99 0.495 2 1 C-20.95435028 14.96301491 -44.40045052 28.12090262 -68.3125 40.375 C-69.05330811 40.76260498 -69.79411621 41.15020996 -70.55737305 41.54956055 C-72.33401107 42.44515827 -74.16400361 43.23341327 -76 44 C-76.99 43.67 -77.98 43.34 -79 43 C-78.030625 42.71125 -77.06125 42.4225 -76.0625 42.125 C-72.89335797 41.35785318 -72.89335797 41.35785318 -72 39 C-69.66666667 38.33333333 -67.33333333 37.66666667 -65 37 C-64.67 36.34 -64.34 35.68 -64 35 C-62.47038347 34.12716797 -60.9003062 33.32436217 -59.3125 32.5625 C-58.41144531 32.12679687 -57.51039063 31.69109375 -56.58203125 31.2421875 C-55.72996094 30.83226562 -54.87789063 30.42234375 -54 30 C-52.845 29.401875 -51.69 28.80375 -50.5 28.1875 C-48 27 -48 27 -46 27 C-45.67 26.34 -45.34 25.68 -45 25 C-43.38901347 24.06238879 -41.73588285 23.19608599 -40.0625 22.375 C-39.16660156 21.92898438 -38.27070313 21.48296875 -37.34765625 21.0234375 C-35 20 -35 20 -33 20 C-32.67 19.34 -32.34 18.68 -32 18 C-30.3203125 16.95703125 -30.3203125 16.95703125 -28.125 15.8125 C-24.40955083 13.81552014 -20.85405419 11.66659389 -17.3125 9.375 C-13.62632889 7.00311831 -9.9805731 4.85142935 -6 3 C-4.9275 2.4225 -3.855 1.845 -2.75 1.25 C-1.8425 0.8375 -0.935 0.425 0 0 Z " fill="#016D90" transform="translate(350,818)"/>
<path d="M0 0 C10.68160959 1.35862578 19.09111602 8.08142224 27 15 C27.63808594 15.55429688 28.27617187 16.10859375 28.93359375 16.6796875 C38.85389876 25.91507167 46.33159774 39.40915407 47 53 C45.22972082 49.66245532 43.93189374 46.22943177 42.625 42.6875 C39.85973271 34.15996854 39.85973271 34.15996854 34 28 C34 27.01 34 26.02 34 25 C33.34 25 32.68 25 32 25 C31.5875 24.29875 31.175 23.5975 30.75 22.875 C28.06130352 18.45785578 24.97970044 14.65990015 20 13 C19.39027344 12.37222656 18.78054688 11.74445313 18.15234375 11.09765625 C15.74753525 8.75394996 13.64567874 7.73320479 10.5625 6.4375 C6.84969118 4.86252547 3.38001491 3.21449253 0 1 C0 0.67 0 0.34 0 0 Z " fill="#39E1BF" transform="translate(429,160)"/>
<path d="M0 0 C0.66 0.33 1.32 0.66 2 1 C-4.49946283 7.17051969 -11.00026512 12.93625166 -18.34765625 18.1015625 C-21.00174416 20.0012484 -23.53200848 22.00178772 -26.0625 24.0625 C-30.87296025 27.96182974 -35.88308253 31.5161413 -41 35 C-41.66 34.67 -42.32 34.34 -43 34 C-36.90494612 28.8863531 -30.70237063 23.986242 -24.3125 19.25 C-16.00057092 13.08438143 -7.9838276 6.58241105 0 0 Z " fill="#068EA0" transform="translate(388,735)"/>
<path d="M0 0 C0.495 1.485 0.495 1.485 1 3 C-2.33333333 6.33333333 -5.66666667 9.66666667 -9 13 C-9.52078125 13.54398438 -10.0415625 14.08796875 -10.578125 14.6484375 C-12.01578132 16.13494622 -13.50486576 17.57131617 -15 19 C-15.66 19 -16.32 19 -17 19 C-17.21398437 19.55171875 -17.42796875 20.1034375 -17.6484375 20.671875 C-19.453511 23.78119236 -21.94800064 25.91272137 -24.625 28.25 C-25.140625 28.70890625 -25.65625 29.1678125 -26.1875 29.640625 C-27.4534602 30.76592296 -28.72607942 31.88372177 -30 33 C-30.66 32.67 -31.32 32.34 -32 32 C-21.44 21.44 -10.88 10.88 0 0 Z " fill="#11B2AE" transform="translate(506,629)"/>
<path d="M0 0 C2.75329021 1.79562405 4.52627461 3.05254922 6 6 C6.33012819 12.3986611 6.14615738 18.69613439 5 25 C2.24351182 20.69298721 2.51700209 16.25399023 3.5625 11.375 C4.23289389 8.55890267 4.23289389 8.55890267 3 4 C-0.63 3.34 -4.26 2.68 -8 2 C-8 2.66 -8 3.32 -8 4 C-8.66 4 -9.32 4 -10 4 C-10.33 4.66 -10.66 5.32 -11 6 C-14.0625 6.625 -14.0625 6.625 -17 7 C-12.16833682 1.61083722 -7.32749133 -0.93258981 0 0 Z " fill="#45E6C0" transform="translate(866,167)"/>
<path d="M0 0 C0.66 0.33 1.32 0.66 2 1 C1.43410156 1.62648437 0.86820312 2.25296875 0.28515625 2.8984375 C-0.44832031 3.71570313 -1.18179687 4.53296875 -1.9375 5.375 C-2.66839844 6.18710938 -3.39929688 6.99921875 -4.15234375 7.8359375 C-6.02989471 9.85924167 -6.02989471 9.85924167 -7 12 C-7.66 12 -8.32 12 -9 12 C-9.2475 13.11375 -9.495 14.2275 -9.75 15.375 C-10.1625 16.57125 -10.575 17.7675 -11 19 C-11.66515625 19.31582031 -12.3303125 19.63164062 -13.015625 19.95703125 C-15.18827402 20.81001428 -15.18827402 20.81001428 -15.6875 22.98828125 C-15.790625 23.75527344 -15.89375 24.52226562 -16 25.3125 C-16.74211802 29.49534704 -17.99081822 31.89051216 -21 35 C-20.49669727 29.68811573 -19.17886035 25.52626422 -16.625 20.8125 C-16.28138428 20.16974121 -15.93776855 19.52698242 -15.58374023 18.86474609 C-11.72336221 11.99223834 -6.57732117 6.50870738 -1 1 C-0.67 0.67 -0.34 0.34 0 0 Z " fill="#31DABA" transform="translate(361,173)"/>
<path d="M0 0 C0 0.99 0 1.98 0 3 C-2.93026082 5.7349101 -5.17727085 7.72575695 -9 9 C-9.66 9.66 -10.32 10.32 -11 11 C-12.17131303 11.67474641 -13.36250387 12.31519281 -14.5625 12.9375 C-20.35678682 16.06261535 -25.7867058 19.74288111 -31.23461914 23.42944336 C-31.94996826 23.90389893 -32.66531738 24.37835449 -33.40234375 24.8671875 C-34.36901978 25.51856689 -34.36901978 25.51856689 -35.35522461 26.18310547 C-35.89800049 26.45268066 -36.44077637 26.72225586 -37 27 C-37.66 26.67 -38.32 26.34 -39 26 C-32.07639846 21.05766585 -25.01545145 16.3985927 -17.8125 11.875 C-11.75298403 8.06663345 -5.77349722 4.23230086 0 0 Z " fill="#016D90" transform="translate(254,832)"/>
<path d="M0 0 C0.66 0 1.32 0 2 0 C1.93941406 0.62003906 1.87882812 1.24007812 1.81640625 1.87890625 C1.1567181 8.85130257 0.71572963 15.81804012 0.37890625 22.8125 C0 26 0 26 -2 29 C-3.97936014 19.59803934 -3.10247916 10.31536385 -1 1 C-0.67 0.67 -0.34 0.34 0 0 Z " fill="#2BC8AB" transform="translate(339,209)"/>
<path d="M0 0 C0.33 0 0.66 0 1 0 C1.55463501 11.2570365 -0.14589068 21.93052592 -2 33 C-4.20711262 29.04952185 -4.07961753 26.40088665 -3.6875 21.875 C-3.53861328 20.01488281 -3.53861328 20.01488281 -3.38671875 18.1171875 C-3 15 -3 15 -2 13 C-2.020625 12.113125 -2.04125 11.22625 -2.0625 10.3125 C-1.9902598 6.48376948 -1.16261649 3.63317654 0 0 Z " fill="#3BD5B3" transform="translate(858,291)"/>
<path d="M0 0 C2.73678428 4.10517642 2.38309403 7.35761322 2.375 12.1875 C2.37483887 13.07284424 2.37467773 13.95818848 2.37451172 14.87036133 C2.23245434 23.21062483 0.89752356 31.1639965 -2 39 C-2.99 39.495 -2.99 39.495 -4 40 C-3.86722656 39.39414063 -3.73445313 38.78828125 -3.59765625 38.1640625 C-2.45744542 32.75430309 -1.66755454 27.44698892 -1.24609375 21.93359375 C-1 20 -1 20 0 19 C0.09983684 17.08548183 0.12967589 15.16711381 0.125 13.25 C0.12757813 12.20328125 0.13015625 11.1565625 0.1328125 10.078125 C0.08342098 7.03271779 0.08342098 7.03271779 -0.5703125 4.234375 C-1 2 -1 2 0 0 Z " fill="#36DDBA" transform="translate(476,214)"/>
<path d="M0 0 C0.33 0 0.66 0 1 0 C1.25 2.75 1.25 2.75 1 6 C-0.875 8.125 -0.875 8.125 -3 10 C-4.23512079 12.13309192 -4.23512079 12.13309192 -5 14 C-5.66 14 -6.32 14 -7 14 C-7.3403125 14.9590625 -7.3403125 14.9590625 -7.6875 15.9375 C-12.4 26.93333333 -12.4 26.93333333 -17 30 C-15.55321979 26.0781681 -13.70493266 22.62679771 -11.55859375 19.04296875 C-10.89279297 17.93115234 -10.22699219 16.81933594 -9.54101562 15.67382812 C-9.02341675 14.81640015 -9.02341675 14.81640015 -8.49536133 13.94165039 C-7.43210973 12.17856182 -6.37686645 10.41085172 -5.32226562 8.64257812 C-4.65775391 7.53720703 -3.99324219 6.43183594 -3.30859375 5.29296875 C-2.39291626 3.76965942 -2.39291626 3.76965942 -1.45874023 2.21557617 C-0.97735596 1.48443604 -0.49597168 0.7532959 0 0 Z " fill="#37E1BF" transform="translate(722,341)"/>
<path d="M0 0 C0.66 0 1.32 0 2 0 C0.48316499 4.258806 -2.65988666 6.1904817 -6.25 8.625 C-7.50799461 9.49973816 -8.76580127 10.37474667 -10.0234375 11.25 C-10.6740918 11.69859375 -11.32474609 12.1471875 -11.99511719 12.609375 C-15.31431896 14.91163673 -18.59265533 17.27064362 -21.875 19.625 C-23.05970632 20.47161943 -24.24458449 21.31799845 -25.4296875 22.1640625 C-26.27789062 22.76992188 -27.12609375 23.37578125 -28 24 C-28 23.01 -28 22.02 -28 21 C-27.195625 20.731875 -26.39125 20.46375 -25.5625 20.1875 C-24.716875 19.795625 -23.87125 19.40375 -23 19 C-22.67 18.01 -22.34 17.02 -22 16 C-21.01 16 -20.02 16 -19 16 C-19 15.34 -19 14.68 -19 14 C-17.35 13.34 -15.7 12.68 -14 12 C-14 11.34 -14 10.68 -14 10 C-12.9275 9.401875 -11.855 8.80375 -10.75 8.1875 C-8.59546359 6.96441973 -6.66935555 5.74978258 -4.6875 4.25 C-3 3 -3 3 -1 3 C-0.67 2.01 -0.34 1.02 0 0 Z " fill="#068B9D" transform="translate(442,755)"/>
<path d="M0 0 C0.66 0.33 1.32 0.66 2 1 C1.38125 1.2475 0.7625 1.495 0.125 1.75 C-2.13746494 2.82143729 -2.13746494 2.82143729 -3 5 C-4.25808796 7.51617591 -5.5300397 7.80485792 -8 9 C-8.33 9.99 -8.66 10.98 -9 12 C-9.66 12 -10.32 12 -11 12 C-11 13.32 -11 14.64 -11 16 C-10.34 16.33 -9.68 16.66 -9 17 C-7.63755204 18.64295195 -6.30135125 20.30824337 -5 22 C-5.66 22.33 -6.32 22.66 -7 23 C-11.69689379 19.24248497 -11.69689379 19.24248497 -12.47265625 16.0625 C-12.62659109 12.52869143 -12.24081397 10.43145836 -10.5 7.3125 C-7.33098615 4.38116219 -3.94872872 1.79487669 0 0 Z " fill="#39DEBC" transform="translate(672,279)"/>
<path d="M0 0 C0.33 0 0.66 0 1 0 C1.20875408 8.54732003 0.61014235 16.77891379 -0.5 25.25 C-0.64308594 26.38824219 -0.78617188 27.52648437 -0.93359375 28.69921875 C-1.2824806 31.46705442 -1.63802596 34.23385089 -2 37 C-2.33 37 -2.66 37 -3 37 C-3.21593533 15.19053118 -3.21593533 15.19053118 -2 8 C-1.67 7.67 -1.34 7.34 -1 7 C-0.63239269 4.67182036 -0.29758419 2.3381615 0 0 Z " fill="#47EEC8" transform="translate(869,193)"/>
<path d="M0 0 C0.66 0.33 1.32 0.66 2 1 C1.09121094 1.54527344 0.18242187 2.09054687 -0.75390625 2.65234375 C-1.65447754 3.1930249 -1.65447754 3.1930249 -2.57324219 3.74462891 C-3.91033125 4.54642286 -5.24823616 5.3468577 -6.58691406 6.14599609 C-10.15492265 8.27862768 -13.70616922 10.43249228 -17.23046875 12.63671875 C-17.90456787 13.05381104 -18.57866699 13.47090332 -19.27319336 13.90063477 C-20.57468829 14.70673543 -21.87125849 15.52085103 -23.16235352 16.34350586 C-24.7292125 17.30754602 -26.3613184 18.16385221 -28 19 C-28.99 18.67 -29.98 18.34 -31 18 C-25.77479988 14.4454421 -20.53591814 11.04773128 -15 8 C-14.26652344 7.5875 -13.53304688 7.175 -12.77734375 6.75 C-3.42265782 1.50263026 -3.42265782 1.50263026 0 0 Z " fill="#037696" transform="translate(350,818)"/>
<path d="M0 0 C0.33 0 0.66 0 1 0 C1.24634228 7.98103363 0.47935115 15.71078393 -0.5 23.625 C-0.64308594 24.81996094 -0.78617188 26.01492188 -0.93359375 27.24609375 C-1.28383093 30.16473691 -1.63940361 33.08262178 -2 36 C-2.33 36 -2.66 36 -3 36 C-3.19477739 34.37585622 -3.38059458 32.75063577 -3.5625 31.125 C-3.66691406 30.22007812 -3.77132812 29.31515625 -3.87890625 28.3828125 C-4 26 -4 26 -3 24 C-2.81687483 21.64844026 -2.67805206 19.29334715 -2.5625 16.9375 C-2.23866786 11.10082784 -1.48852366 5.65638992 0 0 Z " fill="#3FE8C1" transform="translate(854,326)"/>
<path d="M0 0 C2.31 0.33 4.62 0.66 7 1 C7 1.66 7 2.32 7 3 C7.88751953 3.27263672 7.88751953 3.27263672 8.79296875 3.55078125 C17.61860209 6.35828288 17.61860209 6.35828288 21 9 C21.9375 10.9375 21.9375 10.9375 22 13 C21.0625 15.25 21.0625 15.25 20 17 C19.34 17 18.68 17 18 17 C17.34 18.32 16.68 19.64 16 21 C16.144375 20.29875 16.28875 19.5975 16.4375 18.875 C17.01479052 15.92440403 17.51108468 12.96636017 18 10 C17.20335937 9.60167969 16.40671875 9.20335937 15.5859375 8.79296875 C10.390625 6.1953125 5.1953125 3.59765625 0 1 C0 0.67 0 0.34 0 0 Z " fill="#3BE5C1" transform="translate(708,319)"/>
<path d="M0 0 C0.66 0 1.32 0 2 0 C1.67 1.65 1.34 3.3 1 5 C0.01 5.33 -0.98 5.66 -2 6 C-2.35729936 7.32711192 -2.68325425 8.66262906 -3 10 C-4.24324939 12.39402569 -5.6175929 14.68112358 -7 17 C-7.66 17 -8.32 17 -9 17 C-9.0825 17.78375 -9.165 18.5675 -9.25 19.375 C-10 22 -10 22 -12.0625 23.3125 C-13.0215625 23.6528125 -13.0215625 23.6528125 -14 24 C-11.98232615 18.61616569 -9.06187435 14.02944988 -6 9.1875 C-5.4534375 8.30384766 -4.906875 7.42019531 -4.34375 6.50976562 C-3.8178125 5.67509766 -3.291875 4.84042969 -2.75 3.98046875 C-2.27046875 3.21629639 -1.7909375 2.45212402 -1.296875 1.66479492 C-0.86890625 1.1154126 -0.4409375 0.56603027 0 0 Z " fill="#33D7B8" transform="translate(703,372)"/>
<path d="M0 0 C0.99 0 1.98 0 3 0 C2.79503906 0.66386719 2.59007812 1.32773437 2.37890625 2.01171875 C1.97478516 3.33623047 1.97478516 3.33623047 1.5625 4.6875 C1.29566406 5.55761719 1.02882812 6.42773438 0.75390625 7.32421875 C0.03513185 9.87530923 -0.51176179 12.3960629 -1 15 C-1.66666667 18.33333333 -2.33333333 21.66666667 -3 25 C-5.94749504 20.57875744 -4.97240199 17.07961041 -4 12 C-2.8215226 7.9397398 -1.46482354 3.96524326 0 0 Z " fill="#12AAA3" transform="translate(198,481)"/>
<path d="M0 0 C0.33 0.99 0.66 1.98 1 3 C-0.43294498 3.84114171 -1.87154405 4.67265687 -3.3125 5.5 C-4.11300781 5.9640625 -4.91351562 6.428125 -5.73828125 6.90625 C-8 8 -8 8 -11 8 C-11 8.66 -11 9.32 -11 10 C-17.75 14 -17.75 14 -20 14 C-18.79242564 10.37727692 -17.98145951 10.12201363 -14.74609375 8.30078125 C-13.89208984 7.81416016 -13.03808594 7.32753906 -12.15820312 6.82617188 C-11.26037109 6.32666016 -10.36253906 5.82714844 -9.4375 5.3125 C-8.08495117 4.54583008 -8.08495117 4.54583008 -6.70507812 3.76367188 C-4.47453031 2.50087496 -2.23952642 1.24678254 0 0 Z " fill="#42E3BD" transform="translate(797,203)"/>
<path d="M0 0 C-2.97 0 -5.94 0 -9 0 C-9.33 0.66 -9.66 1.32 -10 2 C-10 1.34 -10 0.68 -10 0 C-11.93784265 0.14120714 -13.87526955 0.28812873 -15.8125 0.4375 C-17.43091797 0.55931641 -17.43091797 0.55931641 -19.08203125 0.68359375 C-22.05989905 0.90212461 -22.05989905 0.90212461 -25 2 C-25.99 1.34 -26.98 0.68 -28 0 C-19.08215124 -2.30138032 -8.45125484 -4.22562742 0 0 Z " fill="#37E0BD" transform="translate(419,158)"/>
<path d="M0 0 C0.33 0 0.66 0 1 0 C1.25786805 8.07986556 1.15897382 16.15039764 -1 24 C-1.66 24.33 -2.32 24.66 -3 25 C-2.9278125 24.20335937 -2.855625 23.40671875 -2.78125 22.5859375 C-2.6884375 21.52632813 -2.595625 20.46671875 -2.5 19.375 C-2.4071875 18.33085937 -2.314375 17.28671875 -2.21875 16.2109375 C-1.95893314 13.01151953 -1.95893314 13.01151953 -2.03125 9.84375 C-1.99119427 6.19867841 -1.10563905 3.45512202 0 0 Z " fill="#3CE5C0" transform="translate(848,383)"/>
<path d="M0 0 C0.2475 0.515625 0.495 1.03125 0.75 1.5625 C1.76760559 3.5468309 2.89964423 5.47214511 4.0625 7.375 C5.89830819 10.53477395 6.64223712 13.33293044 7 17 C7.66 17 8.32 17 9 17 C8.67 17.99 8.34 18.98 8 20 C-1.34196128 6.66729798 -1.34196128 6.66729798 -0.6875 1.5625 C-0.460625 1.046875 -0.23375 0.53125 0 0 Z " fill="#10A9A6" transform="translate(199,532)"/>
<path d="M0 0 C0.66 0.33 1.32 0.66 2 1 C1.57847656 1.48210937 1.15695313 1.96421875 0.72265625 2.4609375 C0.17480469 3.09257812 -0.37304688 3.72421875 -0.9375 4.375 C-1.48277344 5.00148438 -2.02804688 5.62796875 -2.58984375 6.2734375 C-4.06958624 7.95632334 -4.06958624 7.95632334 -5 10 C-5.66 10 -6.32 10 -7 10 C-7.28875 10.78375 -7.5775 11.5675 -7.875 12.375 C-9 15 -9 15 -11 17 C-11.33 16.01 -11.66 15.02 -12 14 C-10.48828125 11.66015625 -10.48828125 11.66015625 -8.3125 9.0625 C-7.60738281 8.20785156 -6.90226563 7.35320312 -6.17578125 6.47265625 C-4.19416333 4.220656 -2.14934675 2.09112517 0 0 Z " fill="#15B6AC" transform="translate(215,458)"/>
<path d="M0 0 C0.66 0.33 1.32 0.66 2 1 C0.6875 2.5 0.6875 2.5 -1 4 C-1.99 4 -2.98 4 -4 4 C-4 4.99 -4 5.98 -4 7 C-5.8253125 7.680625 -5.8253125 7.680625 -7.6875 8.375 C-10.8080927 9.54452941 -13.91230616 10.74562438 -17 12 C-13.84679051 8.55942906 -10.33207412 6.10325842 -6.375 3.6875 C-5.49714844 3.1296582 -5.49714844 3.1296582 -4.6015625 2.56054688 C-3.10691202 1.64010271 -1.55636473 0.81174279 0 0 Z " fill="#3DE5C0" transform="translate(696,264)"/>
<path d="M0 0 C0.66 0 1.32 0 2 0 C2.18451025 12.66970387 2.18451025 12.66970387 1 18 C0.67 18 0.34 18 0 18 C-1.04167441 13.90274731 -0.94409525 10.38504776 -0.5625 6.1875 C-0.46066406 5.02605469 -0.35882812 3.86460937 -0.25390625 2.66796875 C-0.17011719 1.78753906 -0.08632813 0.90710938 0 0 Z " fill="#3DE2BE" transform="translate(849,363)"/>
<path d="M0 0 C0.33 0.66 0.66 1.32 1 2 C-3.5 6 -3.5 6 -8 6 C-8 6.66 -8 7.32 -8 8 C-12.455 9.485 -12.455 9.485 -17 11 C-13.82076222 7.44303099 -10.46707728 5.44288019 -6.25 3.25 C-5.34701172 2.77626953 -5.34701172 2.77626953 -4.42578125 2.29296875 C-2.953972 1.52202105 -1.47745258 0.76007676 0 0 Z " fill="#44E5BF" transform="translate(847,174)"/>
<path d="M0 0 C0 0.99 0 1.98 0 3 C-2.64 2.67 -5.28 2.34 -8 2 C-8 2.66 -8 3.32 -8 4 C-8.66 4 -9.32 4 -10 4 C-10.33 4.66 -10.66 5.32 -11 6 C-14.0625 6.625 -14.0625 6.625 -17 7 C-11.99291277 1.41517193 -7.49404325 -0.44964259 0 0 Z " fill="#40E0BA" transform="translate(866,167)"/>
<path d="M0 0 C0.33 0 0.66 0 1 0 C1.28545428 8.13544686 0.18396883 15.97649696 -1 24 C-2.65243234 21.47275053 -3.02859643 20.25845382 -2.69140625 17.2109375 C-2.46324219 16.15132812 -2.23507812 15.09171875 -2 14 C-1.63954347 11.54258105 -1.28550192 9.08421359 -0.9375 6.625 C-0.76089844 5.37976563 -0.58429687 4.13453125 -0.40234375 2.8515625 C-0.26957031 1.91054687 -0.13679687 0.96953125 0 0 Z " fill="#45EDC7" transform="translate(865,232)"/>
<path d="M0 0 C0.66 0.33 1.32 0.66 2 1 C0.625 2.5 0.625 2.5 -1 4 C-1.66 4 -2.32 4 -3 4 C-3.20625 4.5775 -3.4125 5.155 -3.625 5.75 C-6.15962035 9.89756057 -10.67457535 12.00365016 -15 14 C-10.75802296 8.34403061 -5.5954014 4.28075369 0 0 Z " fill="#25D3B8" transform="translate(371,378)"/>
<path d="M0 0 C0.33 0.99 0.66 1.98 1 3 C-5.93 8.445 -5.93 8.445 -13 14 C-13 13.01 -13 12.02 -13 11 C-12.34 11 -11.68 11 -11 11 C-10.67 10.01 -10.34 9.02 -10 8 C-4.62857143 4 -4.62857143 4 -2 4 C-2 3.34 -2 2.68 -2 2 C-1.34 2 -0.68 2 0 2 C0 1.34 0 0.68 0 0 Z " fill="#0893A1" transform="translate(464,738)"/>
<path d="M0 0 C0.33 0 0.66 0 1 0 C1.16947579 1.41633336 1.33545507 2.83308533 1.5 4.25 C1.5928125 5.03890625 1.685625 5.8278125 1.78125 6.640625 C2 9 2 9 2 13 C2.66 13 3.32 13 4 13 C4 13.99 4 14.98 4 16 C3.34 16 2.68 16 2 16 C0.11179167 10.94229911 -1.54895178 6.48951782 -1 1 C-0.67 0.67 -0.34 0.34 0 0 Z " fill="#2ED7B6" transform="translate(339,238)"/>
<path d="M0 0 C-1.52059907 3.88014936 -3.86078531 5.73906562 -7.125 8.25 C-8.03507812 8.95640625 -8.94515625 9.6628125 -9.8828125 10.390625 C-10.58148438 10.92171875 -11.28015625 11.4528125 -12 12 C-12 9 -12 9 -10.57421875 7.5 C-9.95160156 7.005 -9.32898438 6.51 -8.6875 6 C-6.81617927 4.49352797 -5.05178402 3.05442992 -3.39453125 1.3125 C-2 0 -2 0 0 0 Z " fill="#0A99A2" transform="translate(480,727)"/>
<path d="M0 0 C0.33 0 0.66 0 1 0 C1.09688221 5.44693314 1.12862175 10.63904667 0 16 C-0.99 15.67 -1.98 15.34 -3 15 C-2.01 10.05 -1.02 5.1 0 0 Z " fill="#45EAC1" transform="translate(862,257)"/>
<path d="M0 0 C0.66 0.66 1.32 1.32 2 2 C-1 5 -4 8 -7 11 C-6.68232368 5.59950264 -3.80003673 3.47662935 0 0 Z " fill="#11A9A3" transform="translate(519,615)"/>
<path d="M0 0 C0.33 0.66 0.66 1.32 1 2 C0.67 2.66 0.34 3.32 0 4 C0.66 4.33 1.32 4.66 2 5 C1.195625 5.2475 0.39125 5.495 -0.4375 5.75 C-3.171081 6.72238859 -3.171081 6.72238859 -3.8125 9.125 C-3.874375 9.74375 -3.93625 10.3625 -4 11 C-4.99 10.67 -5.98 10.34 -7 10 C-3.535 5.05 -3.535 5.05 0 0 Z " fill="#2FD7B7" transform="translate(678,411)"/>
<path d="M0 0 C0.33 0 0.66 0 1 0 C1.18451025 11.52164009 1.18451025 11.52164009 0 17 C-2.42594434 13.05784044 -2.59447962 9.54703767 -1.546875 5.05859375 C-1.06699548 3.36187686 -0.53740289 1.67938402 0 0 Z " fill="#41EAC2" transform="translate(856,307)"/>
<path d="M0 0 C0.66 0 1.32 0 2 0 C2.33 0.66 2.66 1.32 3 2 C3.66 1.67 4.32 1.34 5 1 C5.33 1.99 5.66 2.98 6 4 C7.8653245 5.01754868 7.8653245 5.01754868 10.0625 5.6875 C10.79597656 5.93886719 11.52945313 6.19023438 12.28515625 6.44921875 C12.85105469 6.63097656 13.41695312 6.81273437 14 7 C12.02 7.99 12.02 7.99 10 9 C8.3278148 7.88321917 6.66237197 6.75633648 5 5.625 C3.6078125 4.68527344 3.6078125 4.68527344 2.1875 3.7265625 C1.465625 3.15679688 0.74375 2.58703125 0 2 C0 1.34 0 0.68 0 0 Z " fill="#0FA5A4" transform="translate(220,563)"/>
<path d="M0 0 C2.03120707 3.04681061 2.24659875 3.60118324 2.1953125 7.01171875 C2.18886719 7.76904297 2.18242187 8.52636719 2.17578125 9.30664062 C2.15902344 10.09232422 2.14226562 10.87800781 2.125 11.6875 C2.11597656 12.48478516 2.10695313 13.28207031 2.09765625 14.10351562 C2.07411585 16.069139 2.03824547 18.03460775 2 20 C1.67 20 1.34 20 1 20 C0.93941406 19.11957031 0.87882812 18.23914063 0.81640625 17.33203125 C0.73261719 16.17058594 0.64882813 15.00914062 0.5625 13.8125 C0.48128906 12.66394531 0.40007812 11.51539063 0.31640625 10.33203125 C0.07129377 7.0703853 0.07129377 7.0703853 -0.59765625 4.19921875 C-1 2 -1 2 0 0 Z " fill="#3CECC7" transform="translate(476,214)"/>
<path d="M0 0 C0.99 0.33 1.98 0.66 3 1 C1.92643323 2.15498897 0.84070212 3.29867867 -0.25 4.4375 C-0.85328125 5.07558594 -1.4565625 5.71367187 -2.078125 6.37109375 C-4.10048016 8.08516306 -5.41270605 8.59358878 -8 9 C-7.67 8.34 -7.34 7.68 -7 7 C-6.34 7 -5.68 7 -5 7 C-4.67 5.68 -4.34 4.36 -4 3 C-2.68 2.67 -1.36 2.34 0 2 C0 1.34 0 0.68 0 0 Z " fill="#35DFBD" transform="translate(454,278)"/>
<path d="M0 0 C0.66 0.99 1.32 1.98 2 3 C-0.1875 5.0625 -0.1875 5.0625 -3 7 C-5.8125 6.75 -5.8125 6.75 -8 6 C-7.01 5.34 -6.02 4.68 -5 4 C-3.32576317 2.67618483 -1.65788785 1.34423339 0 0 Z " fill="#36D0B1" transform="translate(844,406)"/>
<path d="M0 0 C1.125 1.75 1.125 1.75 2 4 C1.125 6.25 1.125 6.25 0 8 C-0.66 8 -1.32 8 -2 8 C-2.66 9.32 -3.32 10.64 -4 12 C-3.33501617 7.61110675 -1.81242323 4.0188515 0 0 Z " fill="#39DCB8" transform="translate(728,328)"/>
<path d="M0 0 C0.33 0.99 0.66 1.98 1 3 C-0.45381897 3.69699552 -1.91322953 4.38233866 -3.375 5.0625 C-4.18710937 5.44535156 -4.99921875 5.82820312 -5.8359375 6.22265625 C-6.55007813 6.47917969 -7.26421875 6.73570312 -8 7 C-8.66 6.67 -9.32 6.34 -10 6 C-6.7 4.02 -3.4 2.04 0 0 Z " fill="#44E4BD" transform="translate(828,185)"/>
<path d="M0 0 C0 3.96130371 -1.34877125 4.82914401 -4 7.6875 C-4.7425 8.49574219 -5.485 9.30398438 -6.25 10.13671875 C-6.8275 10.75160156 -7.405 11.36648438 -8 12 C-8.33 11.01 -8.66 10.02 -9 9 C-6.03 6.03 -3.06 3.06 0 0 Z " fill="#010D17" transform="translate(611,605)"/>
<path d="M0 0 C0.66 0.33 1.32 0.66 2 1 C2.33 1.99 2.66 2.98 3 4 C5.00016466 5.20882096 5.00016466 5.20882096 7 6 C2.87248551 5.39301257 -0.3321148 3.96189209 -4 2 C-2.125 0.9375 -2.125 0.9375 0 0 Z " fill="#3AE2BF" transform="translate(700,313)"/>
<path d="M0 0 C0.33 0 0.66 0 1 0 C1.08133791 1.91595968 1.13934367 3.83291932 1.1875 5.75 C1.22230469 6.81734375 1.25710938 7.8846875 1.29296875 8.984375 C0.97082786 12.30027855 0.22851086 13.59016673 -2 16 C-2.09765625 9.84765625 -2.09765625 9.84765625 -2 8 C-1.67 7.67 -1.34 7.34 -1 7 C-0.63239269 4.67182036 -0.29758419 2.3381615 0 0 Z " fill="#43E5BB" transform="translate(869,193)"/>
<path d="M0 0 C1.32 0.33 2.64 0.66 4 1 C1.42215154 3.64752004 -0.91648098 5.94432065 -4 8 C-3.6875 6.0625 -3.6875 6.0625 -3 4 C-2.01 3.67 -1.02 3.34 0 3 C0 2.01 0 1.02 0 0 Z " fill="#0FA4A4" transform="translate(535,677)"/>
<path d="M0 0 C2.64 0.99 5.28 1.98 8 3 C8 3.66 8 4.32 8 5 C3.545 4.01 3.545 4.01 -1 3 C-0.67 2.01 -0.34 1.02 0 0 Z " fill="#0C9C9D" transform="translate(238,572)"/>
<path d="M0 0 C-0.556875 0.268125 -1.11375 0.53625 -1.6875 0.8125 C-5.57498316 2.80877514 -9.04519577 4.73416375 -12 8 C-9.49922557 0.88241125 -7.68009555 -0.43472239 0 0 Z " fill="#3AE5C1" transform="translate(791,372)"/>
<path d="M0 0 C4.455 0.99 4.455 0.99 9 2 C9 2.66 9 3.32 9 4 C10.32 4.66 11.64 5.32 13 6 C7.71862571 5.48474397 4.42778844 3.74522883 0 1 C0 0.67 0 0.34 0 0 Z " fill="#39E2BF" transform="translate(675,305)"/>
<path d="M0 0 C-1.59622656 1.03320481 -3.20229106 2.05122429 -4.8125 3.0625 C-6.15248047 3.91521484 -6.15248047 3.91521484 -7.51953125 4.78515625 C-10 6 -10 6 -13 5 C-12.030625 4.54625 -11.06125 4.0925 -10.0625 3.625 C-6.92920418 2.34213779 -6.92920418 2.34213779 -6 0 C-2.49056604 -1.24528302 -2.49056604 -1.24528302 0 0 Z " fill="#32DEBD" transform="translate(445,289)"/>
<path d="M0 0 C0.53625 0.226875 1.0725 0.45375 1.625 0.6875 C-1.23084773 2.59139849 -3.3061762 3.38212177 -6.5625 4.3125 C-7.46355469 4.57289063 -8.36460937 4.83328125 -9.29296875 5.1015625 C-10.32357422 5.39160156 -10.32357422 5.39160156 -11.375 5.6875 C-8.25679775 2.39349406 -4.76724115 -0.62726857 0 0 Z " fill="#35DFBD" transform="translate(382.375,161.3125)"/>
<path d="M0 0 C0.33 0.66 0.66 1.32 1 2 C-0.98 4.31 -2.96 6.62 -5 9 C-5.33 8.01 -5.66 7.02 -6 6 C-4.02 4.02 -2.04 2.04 0 0 Z " fill="#020D17" transform="translate(643,569)"/>
<path d="M0 0 C0.33 0 0.66 0 1 0 C1.25 2.8125 1.25 2.8125 1 6 C-1 7.875 -1 7.875 -3 9 C-2.69181644 7.68647977 -2.37832335 6.37420428 -2.0625 5.0625 C-1.88847656 4.33160156 -1.71445312 3.60070312 -1.53515625 2.84765625 C-1 1 -1 1 0 0 Z " fill="#36D8B5" transform="translate(722,341)"/>
<path d="M0 0 C-3.3 1.32 -6.6 2.64 -10 4 C-10.66 3.34 -11.32 2.68 -12 2 C-10.56656 1.46809459 -9.12804633 0.94984742 -7.6875 0.4375 C-6.48673828 0.00244141 -6.48673828 0.00244141 -5.26171875 -0.44140625 C-3 -1 -3 -1 0 0 Z " fill="#0FA2A2" transform="translate(292,571)"/>
<path d="M0 0 C0.66 0 1.32 0 2 0 C2 0.66 2 1.32 2 2 C2.99 2.33 3.98 2.66 5 3 C5 3.66 5 4.32 5 5 C5.99 5.33 6.98 5.66 8 6 C7.34 6.66 6.68 7.32 6 8 C4.99403703 7.0479279 3.99538437 6.08812654 3 5.125 C2.443125 4.59132813 1.88625 4.05765625 1.3125 3.5078125 C0 2 0 2 0 0 Z " fill="#10ABA9" transform="translate(211,555)"/>
<path d="M0 0 C0.99 0.33 1.98 0.66 3 1 C2.1875 3.9375 2.1875 3.9375 1 7 C0.01 7.33 -0.98 7.66 -2 8 C-1.47731534 5.23723823 -0.89130413 2.6739124 0 0 Z " fill="#13AAA4" transform="translate(322,529)"/>
<path d="M0 0 C0.33 0.66 0.66 1.32 1 2 C-0.98 4.64 -2.96 7.28 -5 10 C-5.33 9.34 -5.66 8.68 -6 8 C-4.768606 4.30581799 -2.79208646 2.64890254 0 0 Z " fill="#2DD8BA" transform="translate(718,471)"/>
<path d="M0 0 C0.33 1.32 0.66 2.64 1 4 C-0.4375 6.25 -0.4375 6.25 -2 8 C-2.99 7.67 -3.98 7.34 -5 7 C-3.35 4.69 -1.7 2.38 0 0 Z " fill="#2DD9B9" transform="translate(663,433)"/>
<path d="M0 0 C0.99 0.33 1.98 0.66 3 1 C-1.75 4.875 -1.75 4.875 -4 6 C-4.66 5.34 -5.32 4.68 -6 4 C-5.01 3.67 -4.02 3.34 -3 3 C-1.33289654 1.50014391 -1.33289654 1.50014391 0 0 Z " fill="#10A0A0" transform="translate(297,564)"/>
<path d="M0 0 C4.875 4.625 4.875 4.625 6 8 C5.01 8.495 5.01 8.495 4 9 C3.71125 8.360625 3.4225 7.72125 3.125 7.0625 C2.17176549 4.84793921 2.17176549 4.84793921 0 4 C0 2.68 0 1.36 0 0 Z " fill="#35D9B9" transform="translate(463,184)"/>
<path d="M0 0 C2 2 2 2 2.125 5.125 C2.08375 6.07375 2.0425 7.0225 2 8 C1.01 8.33 0.02 8.66 -1 9 C-1.125 2.25 -1.125 2.25 0 0 Z " fill="#32C3A3" transform="translate(848,379)"/>
</svg>
